<svg xmlns:xlink="http://www.w3.org/1999/xlink" xmlns="http://www.w3.org/2000/svg" width="49" height="49" viewBox="0 0 49 49" fill="none">
<path d="M1.75781 17.0018V4.77637C1.75781 3.11952 3.10096 1.77637 4.75781 1.77637H17.472" stroke="#F8F8F8" stroke-width="1.6" stroke-miterlimit="10"/>
<path d="M32.0117 1.75513H44.2453C45.9022 1.75513 47.2453 3.09827 47.2453 4.75513V17.4609" stroke="#F8F8F8" stroke-width="1.6" stroke-miterlimit="10"/>
<path d="M47.2454 31.9983V44.2237C47.2454 45.8806 45.9023 47.2237 44.2454 47.2237H31.5312" stroke="#F8F8F8" stroke-width="1.6" stroke-miterlimit="10"/>
<path d="M16.9914 47.2447H4.75781C3.10096 47.2447 1.75781 45.9015 1.75781 44.2447V31.5359" stroke="#F8F8F8" stroke-width="1.6" stroke-miterlimit="10"/>
<path d="M47.2434 31.8438C46.6994 34.4177 43.0212 34.4177 42.4742 31.8438L39.1073 15.9445C38.5633 13.3707 34.8852 13.3707 34.3381 15.9445L30.9713 31.8438C30.4273 34.4177 26.7491 34.4177 26.2021 31.8438L22.8352 15.9476C22.2912 13.3737 18.613 13.3737 18.066 15.9476L14.6991 31.8438C14.1551 34.4177 10.477 34.4177 9.92992 31.8438L6.56609 15.9476C6.02207 13.3737 2.34391 13.3737 1.79688 15.9476" stroke="#F8F8F8" stroke-width="1.6" stroke-miterlimit="10"/>
</svg>