<svg xmlns:xlink="http://www.w3.org/1999/xlink" xmlns="http://www.w3.org/2000/svg" viewBox="0 0 44.605 44.49" class="h:48fxx h:30fxx@m transform scale:0 (.has-js/.in-view):scale:1 (.has-js/.in-view):tween:all,1.2s,0.5s,easeOut " fill="none" width="64"  height="64" ><path fill="#1B1B1C" d="m12.433 10.75 8.747 8.747v-7.19C21.18 6.612 16.565 2 10.874 2H2v8.874C2 16.567 6.616 21.18 12.306 21.18h7.191l-8.747-8.747zM34.121 12.433l-8.75 8.75h7.191c5.694 0 10.306-4.616 10.306-10.306V2.003h-8.873c-5.694 0-10.306 4.616-10.306 10.306V19.5l8.75-8.75zM32.438 34.015l-8.75-8.75v7.191c0 5.694 4.616 10.307 10.307 10.307h8.873v-8.874c0-5.694-4.615-10.307-10.306-10.307h-7.19l8.75 8.75zM10.75 32.332l8.75-8.75h-7.19c-5.694 0-10.306 4.616-10.306 10.307v8.874h8.873c5.694 0 10.307-4.616 10.307-10.307v-7.19l-8.75 8.75z" style="" stroke-width="0.916215px"></path></svg>