<svg xmlns:xlink="http://www.w3.org/1999/xlink" xmlns="http://www.w3.org/2000/svg" viewBox="0 0 47.52 47.52" class="h:48fxx h:30fxx@m transform scale:0 (.has-js/.in-view):scale:1 (.has-js/.in-view):tween:all,1.2s,0.4s,easeOut " fill="none" width="64"  height="64" ><path stroke="#1B1B1C" stroke-miterlimit="10" stroke-width="1.536px" d="M21.035 31.516a8.912 8.912 0 0 1-5.953 1.244c-4.599-.648-7.971-4.798-7.67-9.43.331-5.06 4.773-8.81 9.783-8.328a8.942 8.942 0 0 1 7.311 5.256c.995 2.22 2.823 3.923 5.056 4.69" fill="none"></path><path stroke="#1B1B1C" stroke-miterlimit="10" stroke-width="1.536px" d="m28.388 21.57 1.413 3.428-3.431 1.413" fill="none"></path><path stroke="#1B1B1C" stroke-miterlimit="10" stroke-width="1.536px" d="M26.365 16.292a8.912 8.912 0 0 1 5.954-1.244c4.598.648 7.97 4.798 7.67 9.43-.332 5.06-4.774 8.81-9.784 8.328a8.942 8.942 0 0 1-7.31-5.256c-.996-2.22-2.824-3.922-5.057-4.69" fill="none"></path><path stroke="#1B1B1C" stroke-miterlimit="10" stroke-width="1.536px" d="m19.022 26.24-1.41-3.432 3.428-1.41" fill="none"></path><path stroke="#1B1B1C" stroke-miterlimit="10" stroke-width="1.536px" d="M23.76 46.752c12.698 0 22.992-10.294 22.992-22.992S36.458.768 23.76.768.768 11.062.768 23.76 11.062 46.752 23.76 46.752z" fill="none"></path></svg>