<svg xmlns:xlink="http://www.w3.org/1999/xlink" class="h:fit w:auto!" xmlns="http://www.w3.org/2000/svg" width="49.74" height="49.74" fill="none">
            <g stroke="#FFFFFF" stroke-miterlimit="10" stroke-width="1.608px" transform="translate(-111.451)" fill="none">
                <path d="M136.321 48.936c13.292 0 24.066-10.775 24.066-24.066 0-13.291-10.774-24.066-24.066-24.066-13.291 0-24.066 10.775-24.066 24.066 0 13.291 10.775 24.066 24.066 24.066zM119.348 41.842l33.991-33.991" stroke="#FFFFFF" fill="none" stroke-width="1.608px"></path>
                <path d="M119.429 7.729c5.72-3.547 16.822-1.434 26.143 7.89 9.318 9.318 11.324 19.616 7.893 26.137M119.307 7.854c-3.547 5.72-1.434 16.822 7.89 26.143 9.318 9.318 19.616 11.324 26.137 7.894M119.348 7.85l33.991 33.992" stroke="#FFFFFF" fill="none" stroke-width="1.608px"></path>
              </g>
          </svg>