<svg xmlns:xlink="http://www.w3.org/1999/xlink" xmlns="http://www.w3.org/2000/svg" width="23" height="18" viewBox="0 0 23 18" fill="none">
<path d="M22.8666 2.10964C22.0592 2.46742 21.1929 2.71005 20.2827 2.81834C21.2121 2.2618 21.9249 1.37901 22.2607 0.328989C21.3916 0.844406 20.428 1.21863 19.4026 1.42151C18.5815 0.546945 17.4122 0 16.1182 0C13.633 0 11.6179 2.01506 11.6179 4.49893C11.6179 4.85122 11.6577 5.19529 11.7344 5.52428C7.99492 5.33648 4.67898 3.54486 2.45968 0.822473C2.07174 1.48731 1.85105 2.26043 1.85105 3.08427C1.85105 4.6456 2.64473 6.02325 3.8524 6.82927C3.11628 6.80734 2.42266 6.60583 1.81541 6.26862C1.81541 6.28781 1.81541 6.30563 1.81541 6.32482C1.81541 8.50437 3.36714 10.3234 5.42469 10.7374C5.04635 10.8402 4.64882 10.895 4.23896 10.895C3.94835 10.895 3.66734 10.8662 3.39181 10.8142C3.9648 12.6017 5.6262 13.9025 7.59465 13.9395C6.05525 15.1458 4.11422 15.8655 2.00594 15.8655C1.64269 15.8655 1.28491 15.8436 0.932617 15.8025C2.92574 17.0787 5.29035 17.8244 7.8318 17.8244C16.1086 17.8244 20.635 10.9677 20.635 5.0212C20.635 4.82655 20.6308 4.63189 20.6213 4.43861C21.4999 3.80531 22.2635 3.01299 22.8666 2.10964Z" fill="#F1EFE5"/>
</svg>