<svg xmlns:xlink="http://www.w3.org/1999/xlink" xmlns="http://www.w3.org/2000/svg" width="22" height="22" viewBox="0 0 22 22" fill="none">
<path d="M20.3082 0H1.6189C0.725147 0 0 0.708698 0 1.58052V20.3507C0 21.2239 0.725147 21.9326 1.6189 21.9326H20.3082C21.202 21.9326 21.9326 21.2239 21.9326 20.3494V1.58052C21.9326 0.708698 21.202 0 20.3082 0ZM6.50439 18.6893H3.25014V8.22336H6.50439V18.6893ZM4.87727 6.79226C3.8341 6.79226 2.99106 5.94648 2.99106 4.90605C2.99106 3.86562 3.8341 3.01985 4.87727 3.01985C5.91769 3.01985 6.7621 3.86562 6.7621 4.90605C6.76347 5.94648 5.91769 6.79226 4.87727 6.79226ZM18.688 18.6893H15.4392V13.5996C15.4392 12.3851 15.4159 10.8237 13.7476 10.8237C12.0547 10.8237 11.797 12.1466 11.797 13.5119V18.6893H8.5455V8.22336H11.6654V9.65309H11.7093C12.1438 8.83062 13.2048 7.96291 14.7881 7.96291C18.0793 7.96291 18.688 10.1301 18.688 12.9498V18.6893Z" fill="#F1EFE5"/>
</svg>