<?xml version="1.0" standalone="no"?>
<!DOCTYPE svg PUBLIC "-//W3C//DTD SVG 20010904//EN"
 "http://www.w3.org/TR/2001/REC-SVG-20010904/DTD/svg10.dtd">
<svg version="1.0" xmlns="http://www.w3.org/2000/svg"
 width="415.000000pt" height="440.000000pt" viewBox="0 0 415.000000 440.000000"
 preserveAspectRatio="xMidYMid meet">

<g transform="translate(0.000000,440.000000) scale(0.100000,-0.100000)"
fill="#000000" stroke="none">
<path d="M1795 4369 c-395 -50 -797 -221 -1098 -467 -99 -81 -251 -241 -325
-340 -216 -291 -334 -603 -364 -960 -20 -233 12 -532 79 -746 36 -116 131
-307 204 -411 77 -107 269 -303 397 -404 l92 -73 0 -468 c0 -423 2 -470 17
-485 9 -9 26 -15 37 -13 12 3 198 136 414 297 l393 292 106 -16 c826 -123
1651 230 2094 895 120 179 226 438 269 656 28 138 38 410 21 551 -73 597 -441
1128 -997 1437 -220 123 -509 217 -762 250 -135 17 -455 20 -577 5z m-275
-1133 c280 -51 484 -233 571 -511 10 -33 19 -66 19 -72 0 -10 -37 -13 -153
-13 l-153 0 -13 46 c-18 62 -88 154 -146 192 -184 122 -444 105 -600 -39 -120
-110 -177 -299 -142 -466 45 -212 191 -350 404 -383 197 -31 404 76 474 245
l23 55 154 0 154 0 -7 -32 c-12 -57 -63 -176 -101 -235 -187 -293 -567 -409
-916 -280 -107 39 -176 85 -273 182 -156 155 -217 307 -218 540 -1 157 15 233
78 360 151 307 495 474 845 411z m1120 -269 l5 -278 34 35 c18 19 61 47 95 63
56 25 71 28 176 28 108 0 119 -2 180 -31 71 -34 137 -94 175 -158 50 -86 55
-131 55 -533 l0 -373 -140 0 -140 0 0 333 c0 203 -4 347 -11 370 -13 50 -71
113 -116 128 -19 6 -66 9 -103 7 -87 -5 -142 -39 -179 -113 l-26 -49 -3 -338
-3 -338 -140 0 -139 0 0 758 c0 417 3 762 7 766 4 3 66 5 137 4 l131 -3 5
-278z"/>
</g>
</svg>
